<?xml version="1.0" encoding="UTF-8" standalone="no"?>
<svg
   xmlns:dc="http://purl.org/dc/elements/1.1/"
   xmlns:cc="http://creativecommons.org/ns#"
   xmlns:rdf="http://www.w3.org/1999/02/22-rdf-syntax-ns#"
   xmlns:svg="http://www.w3.org/2000/svg"
   xmlns="http://www.w3.org/2000/svg"
   xmlns:sodipodi="http://sodipodi.sourceforge.net/DTD/sodipodi-0.dtd"
   xmlns:inkscape="http://www.inkscape.org/namespaces/inkscape"
   width="1080"
   height="930"
   viewBox="0 0 285.75 246.0624"
   version="1.1"
   id="svg8"
   inkscape:version="1.0.2-2 (e86c870879, 2021-01-15)"
   sodipodi:docname="315.svg">
  <defs
     id="defs2">
    <inkscape:perspective
       sodipodi:type="inkscape:persp3d"
       inkscape:vp_x="0 : 106.15748 : 1"
       inkscape:vp_y="0 : 999.9997 : 0"
       inkscape:vp_z="508.00001 : 103.18744 : 1"
       inkscape:persp3d-origin="254.00001 : 55.56249 : 1"
       id="perspective67" />
    <rect
       x="452.75458"
       y="29.934187"
       width="257.11328"
       height="134.70384"
       id="rect52" />
    <rect
       x="504.07034"
       y="3.2072344"
       width="49.712132"
       height="28.865108"
       id="rect46" />
  </defs>
  <sodipodi:namedview
     id="base"
     pagecolor="#ffffff"
     bordercolor="#666666"
     borderopacity="1.0"
     inkscape:pageopacity="0.0"
     inkscape:pageshadow="2"
     inkscape:zoom="0.49497475"
     inkscape:cx="627.12805"
     inkscape:cy="551.51724"
     inkscape:document-units="px"
     inkscape:current-layer="layer1"
     inkscape:document-rotation="0"
     showgrid="false"
     units="px"
     inkscape:window-width="1920"
     inkscape:window-height="1018"
     inkscape:window-x="-8"
     inkscape:window-y="-8"
     inkscape:window-maximized="1" />
  <metadata
     id="metadata5">
    <rdf:RDF>
      <cc:Work
         rdf:about="">
        <dc:format>image/svg+xml</dc:format>
        <dc:type
           rdf:resource="http://purl.org/dc/dcmitype/StillImage" />
        <dc:title></dc:title>
      </cc:Work>
    </rdf:RDF>
  </metadata>
  <g
     inkscape:label="Слой 1"
     inkscape:groupmode="layer"
     id="layer1">
    <path
       style="fill:#000000;stroke-width:25.733"
       d="m 173.09022,125.85557 -53.75081,71.71021 15.92145,21.27104 37.82936,-50.56652 63.6858,84.95687 H 129.01966 L 77.94363,184.82861 7.50714,278.70149 h 280.21754 z m -114.63445,127.3716 19.36049,-25.85645 19.36048,25.85645 z"
       id="path22" />
    <path
       style="fill:#000000;stroke-width:2.2545"
       d="m 450.85656,12.280834 c 11.25637,0 20.96606,7.701175 23.15719,18.342047 l 1.28889,6.210626 6.57338,0.455446 c 6.70227,0.414041 11.94378,5.837988 11.94378,12.255633 0,6.831688 -5.80004,12.421251 -12.88897,12.421251 h -55.85221 c -9.49488,0 -17.1853,-7.411346 -17.1853,-16.561668 0,-8.487854 6.57337,-15.567967 15.29491,-16.437454 l 4.59707,-0.455446 2.14816,-3.933397 c 4.08151,-7.576963 12.07267,-12.297038 20.9231,-12.297038 m 0,-8.2808343 c -12.41638,0 -23.20015,6.7902843 -28.57056,16.7272843 -12.93193,1.324934 -22.98533,11.882998 -22.98533,24.676885 0,13.704781 11.55711,24.842501 25.77795,24.842501 h 55.85221 c 11.85785,0 21.48162,-9.274533 21.48162,-20.702084 0,-10.9307 -8.80746,-19.791192 -19.97791,-20.536467 C 479.51304,14.72368 466.49518,3.9999997 450.85656,3.9999997 Z"
       id="path24" />
    <path
       style="fill:#000000;stroke-width:1.02731"
       d="m 249.36248,77.02327 c 5.12922,0 9.55365,3.509212 10.55209,8.357963 l 0.58731,2.83001 2.99531,0.207534 c 3.05404,0.188667 5.44245,2.660209 5.44245,5.584554 0,3.113007 -2.64292,5.660019 -5.87315,5.660019 h -25.4503 c -4.32656,0 -7.83087,-3.377147 -7.83087,-7.546694 0,-3.86768 2.9953,-7.093891 6.96947,-7.490092 l 2.09476,-0.207534 0.97885,-1.79234 c 1.85983,-3.452612 5.50118,-5.60342 9.53408,-5.60342 m 0,-3.773346 c -5.6578,0 -10.57167,3.094144 -13.01881,7.62216 -5.89272,0.603735 -10.47378,5.414752 -10.47378,11.244572 0,6.244888 5.26625,11.320044 11.7463,11.320044 h 25.4503 c 5.40329,0 9.78858,-4.226152 9.78858,-9.433369 0,-4.980819 -4.01332,-9.018299 -9.10338,-9.3579 -1.33125,-6.509023 -7.26312,-11.395507 -14.38921,-11.395507 z"
       id="path24-0" />
    <path
       style="fill:#000000;stroke-width:1.30781"
       d="m 252.837,6.756406 c 6.52971,0 12.1622,4.467375 13.43325,10.64004 l 0.74767,3.602723 3.81316,0.264199 c 3.88792,0.240181 6.92847,3.386558 6.92847,7.109373 0,3.962989 -3.36455,7.205443 -7.47677,7.205443 h -32.3993 c -5.5079,0 -9.96903,-4.299251 -9.96903,-9.60726 0,-4.92372 3.81314,-9.030823 8.87243,-9.535203 l 2.66672,-0.2642 1.24611,-2.281725 c 2.36764,-4.395321 7.00324,-7.13339 12.13729,-7.13339 m 0,-4.8036293 c -7.20262,0 -13.45818,3.9389763 -16.5735,9.7033313 -7.50168,0.768581 -13.33356,6.893209 -13.33356,14.314816 0,7.950006 6.70416,14.410888 14.95354,14.410888 h 32.3993 c 6.87862,0 12.46128,-5.380064 12.46128,-12.009071 0,-6.340793 -5.10913,-11.480675 -11.58899,-11.913002 C 269.46033,8.173477 261.90881,1.9527767 252.837,1.9527767 Z"
       id="path24-0-6" />
    <path
       style="fill:#000000;stroke-width:10.0409"
       d="m 37.631661,84.034092 -6.01474,-5.98132 -4.71155,4.71154 5.98133,5.98133 z m -19.24717,18.913018 h 10.02457 v 6.68304 h -10.02457 z m 33.41522,-33.248145 h 6.68305 v 9.857487 h -6.68305 z m 26.86584,8.337097 4.70487,4.70152 -5.98133,5.98133 -4.70152,-4.70487 z m -6.01473,50.507088 5.98132,6.01474 4.71154,-4.71154 -6.01473,-5.98132 z m 9.22259,-25.59604 h 10.02457 v 6.68304 H 81.873411 Z M 55.141241,86.239502 c -11.06044,0 -20.04914,8.988687 -20.04914,20.049128 0,11.06043 8.9887,20.04912 20.04914,20.04912 11.06044,0 20.04913,-8.98869 20.04913,-20.04912 0,-11.060441 -8.98869,-20.049128 -20.04913,-20.049128 z m 0,33.415208 c -7.38477,0 -13.36609,-5.98132 -13.36609,-13.36608 0,-7.384761 5.98132,-13.366091 13.36609,-13.366091 7.38477,0 13.36609,5.98133 13.36609,13.366091 0,7.38476 -5.98132,13.36608 -13.36609,13.36608 z m -3.34153,13.36609 h 6.68305 v 9.85748 h -6.68305 z m -24.89434,-3.20786 4.71155,4.71153 5.98132,-6.01473 -4.71154,-4.71155 z"
       id="path20-9" />
    <path
       style="fill:#000000;stroke-width:0.575057"
       d="m 155.55087,28.770391 c 2.79506,0 5.20607,2.017848 5.75015,4.805951 l 0.32004,1.627297 1.63223,0.119335 c 1.66424,0.108486 2.96575,1.529659 2.96575,3.2112 0,1.790024 -1.4402,3.254593 -3.20045,3.254593 h -13.86862 c -2.35767,0 -4.26728,-1.941908 -4.26728,-4.339459 0,-2.223972 1.63223,-4.079091 3.79787,-4.306912 l 1.1415,-0.119335 0.53341,-1.030622 c 1.01347,-1.985302 2.99775,-3.222048 5.1954,-3.222048 m 0,-2.169729 c -3.0831,0 -5.76082,1.779178 -7.09434,4.382853 -3.21111,0.347157 -5.70747,3.113562 -5.70747,6.465793 0,3.590902 2.86974,6.509188 6.40091,6.509188 h 13.86862 c 2.94441,0 5.33409,-2.430096 5.33409,-5.424322 0,-2.864044 -2.18698,-5.185654 -4.9607,-5.380929 -0.72544,-3.742783 -3.95789,-6.552583 -7.84111,-6.552583 z"
       id="path24-0-5" />
    <path
       style="fill:#000000;stroke-width:0.822057"
       d="m 195.6413,52.08966 c 4.07884,0 7.59724,2.82567 8.39122,6.729957 l 0.46703,2.278767 2.38193,0.167109 c 2.42863,0.151918 4.32793,2.14204 4.32793,4.496767 0,2.506639 -2.10169,4.557532 -4.67043,4.557532 h -20.23854 c -3.44056,0 -6.22726,-2.719328 -6.22726,-6.076712 0,-3.114313 2.38192,-5.712107 5.54225,-6.031134 l 1.66579,-0.167109 0.77841,-1.443219 c 1.47896,-2.780095 4.37463,-4.511958 7.58167,-4.511958 m 0,-3.038355 c -4.49918,0 -8.40679,2.491451 -10.3528,6.137478 -4.68599,0.486136 -8.32894,4.36004 -8.32894,9.054297 0,5.028479 4.18783,9.115066 9.34088,9.115066 h 20.23854 c 4.29679,0 7.78405,-3.402956 7.78405,-7.595886 0,-4.010631 -3.19146,-7.261671 -7.23916,-7.535121 -1.05864,-5.241163 -5.77577,-9.175834 -11.44257,-9.175834 z"
       id="path24-0-5-8" />
    <path
       style="fill:#000000;stroke-width:1.05529"
       d="m 41.694049,25.236936 c 5.129212,0 9.553655,3.702951 10.552096,8.819397 l 0.587305,2.986251 2.995304,0.218992 c 3.054045,0.199082 5.442445,2.807076 5.442445,5.89287 0,3.284872 -2.64291,5.972501 -5.873143,5.972501 H 29.947763 c -4.326559,0 -7.830882,-3.563594 -7.830882,-7.963338 0,-4.081209 2.995304,-7.485536 6.969468,-7.90361 l 2.094765,-0.218992 0.978861,-1.891293 c 1.859818,-3.643227 5.501168,-5.912778 9.534074,-5.912778 m 0,-3.981668 c -5.657794,0 -10.571676,3.264968 -13.018817,8.04297 -5.892706,0.637067 -10.473774,5.713695 -10.473774,11.865371 0,6.589662 5.266258,11.945006 11.746305,11.945006 h 25.450293 c 5.403284,0 9.788584,-4.459467 9.788584,-9.954169 0,-5.255805 -4.013325,-9.516189 -9.103376,-9.874538 -1.331255,-6.868378 -7.263121,-12.02464 -14.389215,-12.02464 z"
       id="path24-0-5-0" />
    <path
       style="fill:#000000;stroke-width:0.878199"
       d="m 132.89963,64.894984 c 4.26847,0 7.95044,3.08155 8.78133,7.339392 l 0.48874,2.485121 2.49266,0.182242 c 2.54154,0.165674 4.52913,2.336014 4.52913,4.903973 0,2.733629 -2.19939,4.97024 -4.88755,4.97024 h -21.17942 c -3.60051,0 -6.51676,-2.965578 -6.51676,-6.62699 0,-3.396331 2.49265,-6.229369 5.7999,-6.577285 l 1.74324,-0.182243 0.8146,-1.57391 c 1.54771,-3.031848 4.578,-4.92054 7.93413,-4.92054 m 0,-3.313494 c -4.70834,0 -8.79761,2.717065 -10.83409,6.693259 -4.90384,0.530159 -8.71615,4.754865 -8.71615,9.874213 0,5.483834 4.38252,9.940484 9.77513,9.940484 h 21.17942 c 4.49654,0 8.14593,-3.711112 8.14593,-8.283734 0,-4.373815 -3.33984,-7.919254 -7.57571,-8.217467 C 143.7663,65.872467 138.82988,61.58149 132.89963,61.58149 Z"
       id="path24-0-5-0-0" />
    <path
       style="fill:#000000;stroke-width:0.50602"
       d="m 100.76059,34.091074 c 2.4595,0 4.58106,1.775595 5.05982,4.228972 l 0.28161,1.431931 1.43627,0.105008 c 1.46444,0.09546 2.6097,1.346016 2.6097,2.825679 0,1.575122 -1.26729,2.863862 -2.81622,2.863862 H 95.12815 c -2.074621,0 -3.75497,-1.708772 -3.75497,-3.818485 0,-1.956972 1.43627,-3.589374 3.341914,-3.789844 l 1.004457,-0.105009 0.469375,-0.90689 c 0.891793,-1.746956 2.637852,-2.835224 4.571664,-2.835224 m 0,-1.909242 c -2.712958,0 -5.069203,1.565578 -6.242626,3.856669 -2.825603,0.305478 -5.022263,2.739762 -5.022263,5.68954 0,3.159796 2.525217,5.727727 5.632449,5.727727 h 12.20362 c 2.59092,0 4.6937,-2.13835 4.6937,-4.773104 0,-2.520201 -1.92442,-4.563089 -4.36514,-4.73492 -0.63835,-3.293443 -3.48272,-5.765912 -6.89974,-5.765912 z"
       id="path24-0-5-0-0-5" />
  </g>
</svg>
